<?xml version="1.0" encoding="UTF-8" standalone="no"?>
<svg
   xmlns:dc="http://purl.org/dc/elements/1.1/"
   xmlns:cc="http://creativecommons.org/ns#"
   xmlns:rdf="http://www.w3.org/1999/02/22-rdf-syntax-ns#"
   xmlns:svg="http://www.w3.org/2000/svg"
   xmlns="http://www.w3.org/2000/svg"
   xmlns:sodipodi="http://sodipodi.sourceforge.net/DTD/sodipodi-0.dtd"
   xmlns:inkscape="http://www.inkscape.org/namespaces/inkscape"
   width="16"
   height="16"
   version="1.1"
   id="svg8"
   sodipodi:docname="FolderOpen_Down_16x.svg"
   inkscape:version="0.92.3 (2405546, 2018-03-11)"
   inkscape:export-filename="E:\TMP\VS2015 Image Library\Folder_Down\FolderOpen_Down_256x.png"
   inkscape:export-xdpi="1536"
   inkscape:export-ydpi="1536">
  <metadata
     id="metadata14">
    <rdf:RDF>
      <cc:Work
         rdf:about="">
        <dc:format>image/svg+xml</dc:format>
        <dc:type
           rdf:resource="http://purl.org/dc/dcmitype/StillImage" />
        <dc:title />
      </cc:Work>
    </rdf:RDF>
  </metadata>
  <defs
     id="defs12" />
  <sodipodi:namedview
     pagecolor="#ffffff"
     bordercolor="#666666"
     borderopacity="1"
     objecttolerance="10"
     gridtolerance="10"
     guidetolerance="10"
     inkscape:pageopacity="0"
     inkscape:pageshadow="2"
     inkscape:window-width="3840"
     inkscape:window-height="2104"
     id="namedview10"
     showgrid="false"
     inkscape:zoom="83.4386"
     inkscape:cx="4.5306992"
     inkscape:cy="8.1876328"
     inkscape:window-x="-16"
     inkscape:window-y="-16"
     inkscape:window-maximized="1"
     inkscape:current-layer="svg8" />
  <style
     type="text/css"
     id="style2">.icon-canvas-transparent{opacity:0;fill:#F6F6F6;} .icon-vs-out{fill:#F6F6F6;} .icon-vs-fg{fill:#F0EFF1;} .icon-folder{fill:#DCB67A;}</style>
  <path
     class="icon-canvas-transparent"
     d="M16 16h-16v-16h16v16z"
     id="canvas" />
  <path
     class="icon-vs-out"
     d="M 12.4165,3.7734574 H 6.7876448 L 5.9966308,5.3807228 H 3.7153464 c -0.7672836,0 -1.582028,0.5633465 -1.582028,1.6072653 V 8.5952534 H 1.3423044 V 9.5563981 L 3.1798299,14.220682 H 12.4165 c 0,0 0.680272,-0.01688 1.13115,-0.454052 0.272109,-0.266807 0.450878,-0.656568 0.450878,-1.153213 V 5.3807228 c 0,-1.0471334 -0.794969,-1.6072654 -1.582028,-1.6072654 z"
     id="outline"
     inkscape:connector-curvature="0"
     style="fill:#f6f6f6;stroke-width:0.79729837" />
  <path
     class="icon-folder"
     d="m 12.4165,4.6020027 c 0,0 0.791014,0 0.791014,0.8036327 0,1.8965731 0,6.5938056 0,7.2326936 0,0.803633 -0.791014,0.790775 -0.791014,0.790775 V 5.4056354 H 7.6704164 l -0.791014,1.6072653 h -3.164056 v 2.410898 H 10.043458 L 12.4165,13.441962 H 3.7153464 L 2.1333184,9.4237987 h 0.791014 c 0,0 0,-1.6072653 0,-2.410898 0,-0.8036327 0.9776933,-0.8036327 0.791014,-0.8036327 h 2.768549 l 0.791014,-1.6072653 z"
     id="iconBg"
     style="fill:#000000;stroke-width:0.79729837"
     inkscape:connector-curvature="0" />
  <path
     class="icon-vs-fg"
     d="m 3.7153464,9.3988861 v -2.410898 h 3.164056 L 7.6704164,5.3807228 H 12.4165 V 13.417049 L 10.043458,9.3988861 Z"
     id="iconFg"
     inkscape:connector-curvature="0"
     style="fill:#f0eff1;stroke-width:0.79729837" />
  <path
     style="fill:#f6f6f6;stroke-width:0.60731477"
     inkscape:connector-curvature="0"
     id="path6"
     d="M 5.6502816,0.54802054 V 3.673087 L 3.8799283,1.7980483 V 6.1731389 L 5.6502816,8.048182 6.9255359,9.1975703 c 2.8972288,-3.0702196 -1.7991079,-4.8085588 0,0 L 8.0107527,8.048182 9.7811055,6.1731389 V 1.7980483 L 8.0107527,3.673087 V 0.54802054 Z"
     class="st1"
     sodipodi:nodetypes="ccccccccccccc" />
  <path
     style="fill:#424242;stroke-width:0.60731477"
     inkscape:connector-curvature="0"
     id="path9"
     d="M 9.1909879,5.5481257 V 3.673087 L 7.4206347,5.5481257 V 1.1730355 H 6.2403993 V 5.5481257 L 4.470046,3.673087 V 5.5481257 L 6.830517,8.048182 Z"
     class="st2"
     sodipodi:nodetypes="cccccccccc" />
</svg>
