<svg xmlns="http://www.w3.org/2000/svg" width="16" height="16"><style type="text/css">.icon-canvas-transparent{opacity:0;fill:#F6F6F6;} .icon-vs-out{fill:#F6F6F6;} .icon-vs-action-blue{fill:#00539C;}</style><path class="icon-canvas-transparent" d="M16 16h-16v-16h16v16z" id="canvas"/><path class="icon-vs-out" d="M1 9.149c0-3.52 2.612-6.44 6-6.927v-2.222h1.541l5.03 4.152-6.571 5.419v-3.251c-1.165.412-2.002 1.526-2.002 2.829 0 1.654 1.347 3 3.002 3 1.654 0 3-1.346 3-3 0-.153-.023-.304-.048-.451l-.138-.798 3.727-1.494.268 1.13c.127.534.191 1.077.191 1.613 0 3.367-2.392 6.186-5.564 6.851h-2.872c-3.173-.664-5.564-3.483-5.564-6.851z" id="outline"/><path class="icon-vs-action-blue" d="M14 9.149c0 3.312-2.684 6-6 6-3.314 0-6-2.688-6-6 0-3.313 2.686-5.998 6-5.998v-2.301l4 3.301-4 3.299v-2.301c-2.207 0-4.002 1.793-4.002 4 0 2.211 1.795 4 4.002 4 2.211 0 4-1.789 4-4 0-.212-.027-.419-.063-.622l1.898-.761c.106.445.165.906.165 1.383z" id="iconBg"/></svg>