<?xml version="1.0" encoding="UTF-8" standalone="no"?>
<svg
   xmlns:dc="http://purl.org/dc/elements/1.1/"
   xmlns:cc="http://creativecommons.org/ns#"
   xmlns:rdf="http://www.w3.org/1999/02/22-rdf-syntax-ns#"
   xmlns:svg="http://www.w3.org/2000/svg"
   xmlns="http://www.w3.org/2000/svg"
   xmlns:sodipodi="http://sodipodi.sourceforge.net/DTD/sodipodi-0.dtd"
   xmlns:inkscape="http://www.inkscape.org/namespaces/inkscape"
   viewBox="0 0 16 16"
   enable-background="new 0 0 16 16"
   version="1.1"
   id="svg8"
   sodipodi:docname="ThisLine_16x.svg"
   inkscape:version="0.92.3 (2405546, 2018-03-11)"
   inkscape:export-filename="E:\TMP\VS2017 Image Library\Goto\ThisLine\ThisLine_128x.png"
   inkscape:export-xdpi="768"
   inkscape:export-ydpi="768">
  <metadata
     id="metadata14">
    <rdf:RDF>
      <cc:Work
         rdf:about="">
        <dc:format>image/svg+xml</dc:format>
        <dc:type
           rdf:resource="http://purl.org/dc/dcmitype/StillImage" />
      </cc:Work>
    </rdf:RDF>
  </metadata>
  <defs
     id="defs12" />
  <sodipodi:namedview
     pagecolor="#ffffff"
     bordercolor="#666666"
     borderopacity="1"
     objecttolerance="10"
     gridtolerance="10"
     guidetolerance="10"
     inkscape:pageopacity="0"
     inkscape:pageshadow="2"
     inkscape:window-width="3019"
     inkscape:window-height="1524"
     id="namedview10"
     showgrid="false"
     inkscape:zoom="41.7193"
     inkscape:cx="1.065376"
     inkscape:cy="8.8634482"
     inkscape:window-x="0"
     inkscape:window-y="0"
     inkscape:window-maximized="0"
     inkscape:current-layer="svg8" />
  <style
     type="text/css"
     id="style2">.icon-canvas-transparent{opacity:0;fill:#F6F6F6;} .icon-vs-out{fill:#F6F6F6;} .icon-vs-bg{fill:#424242;} .icon-vs-blue{fill:#1BA1E2;}</style>
  <path
     class="icon-canvas-transparent"
     d="M16 16h-16v-16h16v16z"
     id="canvas" />
  <path
     class="icon-vs-out"
     d="M2 16v-3h13v3h-13zm3-4v-2.879l-2.146 2.147-2.122-2.122 2.647-2.646-2.647-2.646 2.121-2.121 1.147 1.146v-1.879h11v3h-9.879l1.879 1.879v-.879h9v3h-9v-.879l-1.879 1.879h7.879v3h-8z"
     id="outline" />
  <path
     class="icon-vs-bg"
     d="M14 3h-9v-1h9v1zm0 11h-11v1h11v-1zm-2-4h-6v1h6v-1z"
     id="iconBg" />
  <path
     class="icon-vs-blue"
     d="M15 7h-7v-1h7v1zm-8.793-.5l-3.353-3.354-.708.708 2.647 2.646-2.647 2.646.707.707 3.354-3.353z"
     id="colorImportance"
     style="fill:#000000" />
</svg>
